<?xml version="1.0" standalone="no"?>
<!DOCTYPE svg PUBLIC "-//W3C//DTD SVG 20010904//EN"
 "http://www.w3.org/TR/2001/REC-SVG-20010904/DTD/svg10.dtd">
<svg version="1.0" xmlns="http://www.w3.org/2000/svg"
 width="3544.000000pt" height="3544.000000pt" viewBox="0 0 3544.000000 3544.000000"
 preserveAspectRatio="xMidYMid meet">

<g transform="translate(0.000000,3544.000000) scale(0.100000,-0.100000)"
fill="#000000" stroke="none">
<path d="M6290 24825 l0 -1065 2980 0 2980 0 0 -619 0 -618 -2705 -3282
c-1488 -1805 -2705 -3284 -2705 -3286 0 -3 1249 -5 2775 -5 l2775 0 0 -450 0
-450 2076 0 c1657 0 2075 3 2071 13 -3 6 -777 1929 -1722 4272 -944 2343
-1732 4297 -1750 4343 l-33 82 882 0 883 0 1443 -3485 c795 -1917 1447 -3485
1450 -3485 3 0 646 1568 1430 3485 l1425 3485 899 0 c851 0 898 -1 894 -17 -3
-10 -792 -1960 -1753 -4333 -961 -2373 -1751 -4325 -1756 -4337 l-9 -23 2080
0 2080 0 0 308 0 307 2703 3310 2702 3310 -2632 3 -2633 2 0 735 0 735 2870 0
2870 0 0 1065 0 1065 -11285 0 -11285 0 0 -1065z"/>
<path d="M6290 20038 c0 -2243 0 -2302 19 -2283 16 18 3760 4542 3784 4573 8
9 -373 12 -1897 12 l-1906 0 0 -2302z"/>
<path d="M27026 18139 l-1828 -2274 1828 -3 c1005 -1 1829 -1 1831 1 2 2 2
1027 1 2277 l-3 2273 -1829 -2274z"/>
<path d="M6290 13310 l0 -1060 11285 0 11285 0 0 1060 0 1060 -11285 0 -11285
0 0 -1060z"/>
<path d="M14125 11683 c-71 -25 -200 -56 -287 -68 l-48 -6 0 -40 0 -39 80 0
c109 0 115 -7 123 -136 13 -203 19 -1026 9 -1296 -10 -250 -16 -302 -39 -327
-2 -3 -40 -10 -86 -15 l-82 -11 0 -34 0 -34 318 -1 317 -1 0 36 0 37 -79 7
c-108 9 -112 15 -123 158 -4 62 -7 490 -6 952 1 719 -1 840 -13 841 -8 1 -45
-10 -84 -23z"/>
<path d="M5855 11645 c-339 -55 -593 -233 -735 -515 -99 -197 -132 -429 -95
-673 65 -433 381 -746 822 -812 252 -38 512 -2 731 102 70 33 76 39 98 90 42
95 29 119 -40 73 -64 -43 -146 -78 -245 -103 -122 -30 -360 -30 -476 1 -229
61 -413 211 -520 422 -119 235 -137 563 -46 826 40 118 84 187 177 281 65 65
98 89 165 121 129 62 192 76 349 76 111 0 149 -4 215 -22 93 -27 208 -81 253
-120 31 -27 32 -29 39 -147 l8 -120 37 -3 c42 -4 38 -15 58 171 7 59 18 135
25 168 12 59 11 61 -12 76 -39 25 -182 70 -299 93 -143 28 -383 35 -509 15z"/>
<path d="M22286 11649 c-252 -35 -466 -139 -627 -306 -128 -133 -204 -280
-246 -474 -26 -124 -24 -382 5 -506 90 -391 382 -657 789 -718 256 -39 589 2
864 104 l56 21 -5 214 c-3 117 -1 239 2 270 7 53 11 59 49 84 52 33 58 41 55
71 l-3 23 -320 2 -320 1 0 -40 0 -40 110 -8 c130 -9 177 -27 186 -72 9 -41 11
-331 3 -389 -6 -42 -11 -49 -45 -67 -80 -40 -204 -63 -354 -63 -165 -1 -227
13 -360 78 -294 145 -467 488 -452 896 17 455 247 740 647 801 97 15 263 6
362 -20 99 -26 236 -85 278 -119 32 -27 32 -27 38 -147 l7 -120 37 -3 c44 -4
41 -9 58 148 6 58 18 137 25 175 13 66 13 71 -6 87 -27 23 -186 74 -305 98
-115 24 -417 35 -528 19z"/>
<path d="M16173 11594 c-104 -51 -103 -229 1 -278 101 -48 206 23 206 139 0
116 -107 188 -207 139z"/>
<path d="M15167 11389 c-27 -16 -74 -40 -104 -53 l-55 -23 2 -207 1 -207 -101
-47 c-91 -42 -100 -49 -100 -74 l0 -27 95 6 95 6 0 -450 c0 -513 1 -523 73
-597 67 -70 190 -95 303 -61 38 11 65 30 122 87 68 70 71 75 57 95 l-15 21
-57 -24 c-99 -40 -190 -26 -236 38 -31 41 -37 165 -30 546 l6 342 168 0 167 0
11 50 c20 93 35 86 -170 81 l-180 -3 6 113 c4 63 11 176 16 253 7 101 6 142
-2 152 -15 18 -15 18 -72 -17z"/>
<path d="M7620 10984 c-103 -22 -199 -75 -290 -161 -69 -65 -88 -90 -125 -167
-61 -125 -79 -223 -72 -385 8 -210 68 -353 202 -480 149 -141 324 -189 530
-146 209 44 406 227 480 446 37 112 47 314 20 433 -51 233 -227 416 -444 462
-83 17 -216 17 -301 -2z m200 -90 c173 -51 280 -237 310 -536 32 -332 -65
-568 -259 -625 -113 -32 -227 2 -321 97 -109 109 -167 274 -177 507 -9 198 18
330 87 436 77 115 219 163 360 121z"/>
<path d="M9121 10984 c-44 -19 -204 -59 -298 -74 l-73 -12 0 -39 0 -39 79 0
c63 0 84 -4 102 -19 l24 -19 0 -480 c0 -572 9 -531 -121 -547 l-79 -10 0 -34
0 -34 318 -1 317 -1 0 36 0 37 -79 7 c-60 5 -84 12 -97 26 -25 27 -33 156 -33
509 -1 341 0 343 90 424 74 66 137 96 218 103 134 11 242 -47 292 -160 l24
-52 0 -465 0 -465 213 0 212 0 0 36 0 36 -67 6 c-86 7 -102 14 -115 46 -7 16
-14 186 -19 451 -7 447 -11 479 -56 563 -74 134 -269 212 -445 177 -85 -16
-123 -38 -193 -110 -33 -34 -82 -80 -108 -102 l-48 -41 3 129 c3 143 2 146
-61 118z"/>
<path d="M10973 10985 c-130 -28 -247 -115 -299 -222 -54 -110 -43 -277 26
-370 52 -70 106 -97 312 -152 103 -27 204 -59 225 -70 113 -57 146 -163 89
-283 -22 -47 -75 -94 -135 -122 -66 -30 -202 -29 -290 3 -74 26 -145 72 -163
104 -6 12 -14 65 -17 117 l-6 95 -36 3 -36 3 -7 -138 c-4 -76 -11 -160 -15
-188 -5 -27 -5 -54 -1 -59 21 -22 295 -66 413 -66 193 1 364 92 455 243 69
115 77 281 17 382 -49 84 -99 109 -379 186 -200 56 -223 65 -260 109 -80 95
-44 255 70 311 41 20 64 24 139 24 77 0 99 -4 150 -28 104 -49 137 -92 150
-199 7 -57 8 -58 40 -58 l33 0 6 83 c5 80 9 200 7 224 -1 14 -133 56 -225 72
-79 14 -186 13 -263 -4z"/>
<path d="M12257 10975 c-69 -24 -211 -57 -299 -70 l-48 -6 0 -40 0 -39 74 0
c89 0 121 -10 130 -42 4 -13 11 -216 15 -453 9 -492 11 -504 87 -585 71 -76
124 -94 274 -95 171 0 204 15 358 168 l114 112 -4 -124 -3 -124 220 -1 220 -1
0 35 0 35 -78 6 c-92 6 -106 17 -119 91 -5 29 -8 299 -7 601 1 301 -1 550 -4
553 -3 3 -43 -6 -88 -21 -45 -15 -140 -39 -213 -54 l-131 -26 0 -35 0 -35 89
-5 c69 -4 91 -9 101 -24 20 -27 27 -174 24 -462 l-4 -260 -45 -68 c-56 -87
-122 -140 -207 -166 -78 -24 -132 -25 -201 -5 -102 31 -146 93 -162 232 -11
101 -12 536 -1 758 7 138 3 177 -18 174 -3 0 -37 -11 -74 -24z"/>
<path d="M16301 10984 c-44 -19 -204 -59 -298 -74 l-73 -12 0 -39 0 -39 79 0
c63 0 84 -4 102 -19 l24 -19 0 -480 c0 -574 10 -531 -124 -546 l-82 -9 3 -35
3 -35 315 0 315 0 0 34 0 34 -77 10 c-48 6 -84 16 -94 27 -28 28 -34 166 -32
703 3 563 7 529 -61 499z"/>
<path d="M17281 10984 c-44 -19 -204 -59 -298 -74 l-73 -12 0 -39 0 -39 79 0
c63 0 84 -4 102 -19 l24 -19 0 -480 c0 -572 9 -531 -121 -547 l-79 -10 0 -34
0 -34 318 -1 317 -1 0 36 0 37 -79 7 c-60 5 -84 12 -97 26 -25 27 -33 156 -33
509 -1 341 0 343 90 424 74 66 137 96 218 103 134 11 242 -47 292 -160 l24
-52 0 -465 0 -465 213 0 212 0 0 36 0 36 -67 6 c-86 7 -102 14 -115 46 -7 16
-14 186 -19 451 -7 447 -11 479 -56 563 -74 134 -269 212 -445 177 -85 -16
-123 -38 -193 -110 -33 -34 -82 -80 -108 -102 l-48 -41 3 129 c3 143 2 146
-61 118z"/>
<path d="M19291 10990 c-112 -24 -232 -77 -316 -140 -100 -75 -164 -236 -152
-384 13 -165 88 -268 234 -322 27 -9 52 -20 56 -24 4 -4 -35 -39 -88 -80 -105
-79 -124 -107 -131 -184 -8 -76 15 -113 95 -152 l63 -32 -111 -66 c-61 -37
-118 -77 -126 -89 -9 -12 -25 -53 -37 -90 -41 -135 -3 -282 97 -382 171 -171
561 -193 840 -47 227 119 362 402 296 620 -29 95 -71 150 -146 187 l-60 30
-305 5 c-323 6 -346 10 -376 55 -30 45 -14 99 47 161 53 54 54 54 114 54 240
0 452 144 516 351 23 74 25 199 4 258 l-14 41 118 0 119 0 32 56 c17 31 29 62
26 69 -4 10 -42 12 -184 8 l-179 -6 -59 36 c-33 20 -79 44 -104 53 -53 19
-206 27 -269 14z m106 -105 c40 -12 63 -28 101 -70 68 -74 94 -143 100 -266 6
-135 -13 -197 -81 -266 -142 -141 -367 -92 -437 94 -34 91 -46 193 -32 274 15
88 40 137 93 183 74 63 159 80 256 51z m291 -1260 c53 -22 106 -82 122 -141
18 -64 8 -167 -23 -236 -29 -66 -103 -149 -162 -184 -190 -111 -452 -92 -575
42 -108 117 -119 289 -29 421 31 44 101 99 147 114 15 5 128 7 252 5 188 -2
232 -6 268 -21z"/>
<path d="M23987 10975 c-69 -24 -211 -57 -299 -70 -48 -6 -48 -6 -48 -45 l0
-38 90 -4 c50 -1 94 -8 101 -15 21 -21 31 -269 25 -603 -7 -340 -13 -406 -40
-426 -9 -6 -50 -15 -91 -19 l-75 -7 0 -36 0 -37 340 0 340 0 0 36 0 37 -92 7
c-123 10 -135 15 -149 67 -17 64 -18 656 -1 729 17 73 60 141 113 176 34 23
53 28 104 28 51 0 67 -4 96 -26 19 -15 43 -43 54 -63 15 -27 26 -36 46 -36
l26 0 12 166 c15 195 16 193 -76 201 -75 7 -145 -15 -199 -61 -21 -18 -70 -77
-109 -129 -70 -97 -92 -116 -82 -74 9 33 10 243 3 256 -9 14 -8 14 -89 -14z"/>
<path d="M25440 10984 c-103 -22 -199 -75 -290 -161 -69 -65 -88 -90 -125
-167 -61 -125 -79 -223 -72 -385 8 -210 68 -353 202 -480 149 -141 324 -189
530 -146 209 44 406 227 480 446 37 112 47 314 20 433 -51 233 -227 416 -444
462 -83 17 -216 17 -301 -2z m200 -90 c173 -51 280 -237 310 -536 32 -332 -65
-568 -259 -625 -113 -32 -227 2 -321 97 -109 109 -167 274 -177 507 -9 198 18
330 87 436 77 115 219 163 360 121z"/>
<path d="M26917 10975 c-69 -24 -211 -57 -299 -70 l-48 -6 0 -40 0 -39 74 0
c89 0 121 -10 130 -42 4 -13 11 -216 15 -453 9 -492 11 -504 87 -585 71 -76
124 -94 274 -95 171 0 204 15 358 168 l114 112 -4 -124 -3 -124 220 -1 220 -1
0 35 0 35 -78 6 c-92 6 -106 17 -119 91 -5 29 -8 299 -7 601 1 301 -1 550 -4
553 -3 3 -43 -6 -88 -21 -45 -15 -140 -39 -213 -54 l-131 -26 0 -35 0 -35 89
-5 c69 -4 91 -9 101 -24 20 -27 27 -174 24 -462 l-4 -260 -45 -68 c-56 -87
-122 -140 -207 -166 -78 -24 -132 -25 -201 -5 -102 31 -146 93 -162 232 -11
101 -12 536 -1 758 7 138 3 177 -18 174 -3 0 -37 -11 -74 -24z"/>
<path d="M28785 10974 c-38 -14 -131 -37 -205 -52 l-135 -27 0 -35 0 -35 87
-5 c50 -3 92 -10 100 -17 6 -7 15 -43 19 -80 11 -91 10 -1436 0 -1587 -10
-145 -14 -150 -126 -161 l-75 -7 0 -36 0 -37 315 0 315 0 0 37 0 36 -76 7
c-99 10 -110 21 -119 117 -11 127 -11 613 0 611 6 -1 39 -14 74 -29 78 -32
184 -41 275 -24 56 10 81 22 149 72 45 33 128 90 184 128 112 76 132 99 191
210 155 292 129 625 -61 808 -108 103 -210 138 -383 129 -138 -6 -167 -21
-319 -162 l-125 -117 5 73 c3 41 8 102 10 135 4 50 2 63 -11 68 -8 3 -16 6
-17 5 -1 0 -33 -12 -72 -25z m546 -170 c200 -59 311 -249 296 -508 -13 -230
-109 -401 -265 -474 -49 -23 -70 -27 -153 -27 -90 0 -99 2 -170 37 -42 21 -97
56 -123 79 l-47 42 3 311 c3 358 1 349 102 444 105 100 230 133 357 96z"/>
</g>
</svg>
