<svg xmlns="http://www.w3.org/2000/svg" xmlns:xlink="http://www.w3.org/1999/xlink" version="1.1" id="Layer_1" x="0px" y="0px" width="100%" viewBox="0 0 440 229" enable-background="new 0 0 440 229" xml:space="preserve">
<path fill="#ffffff" opacity="1.000000" stroke="none" d=" M289.000000,230.000000   C192.666687,230.000000 96.833366,230.000000 1.000039,230.000000   C1.000026,153.666702 1.000026,77.333397 1.000013,1.000069   C147.666611,1.000046 294.333221,1.000046 440.999878,1.000023   C440.999908,77.333260 440.999908,153.666519 440.999939,229.999893   C390.500000,230.000000 340.000000,230.000000 289.000000,230.000000  M209.987228,145.804901   C211.038391,148.413666 211.524170,151.503021 213.252441,153.536194   C217.516357,158.552338 223.802261,158.590240 229.535522,157.799561   C234.738968,157.081940 240.530914,155.975311 241.954010,149.140793   C243.483322,141.796082 241.028290,134.834030 235.174438,131.044891   C231.816116,128.871094 227.888916,127.407082 224.978149,124.780830   C223.481125,123.430130 223.528000,120.249901 223.196442,117.852264   C223.146179,117.488747 224.835648,116.884651 225.720413,116.391830   C226.480331,118.232727 227.281998,120.058128 227.974091,121.924171   C228.175537,122.467300 228.064026,123.126511 228.110214,124.002937   C230.394073,124.002937 232.389328,124.187119 234.334503,123.953743   C236.496979,123.694290 240.464859,123.008965 240.454514,122.587212   C240.379150,119.509293 239.702332,116.387276 238.765198,113.421440   C238.440826,112.394844 236.947845,111.318993 235.802780,111.046394   C231.913651,110.120560 227.941467,109.543587 223.980789,108.109573   C220.999146,102.857079 216.285706,106.667778 212.511810,106.377014   C211.012421,106.261490 209.205261,110.140579 207.002274,112.863472   C206.340622,113.053650 204.614746,113.549721 202.232071,113.776825   C200.217712,112.518692 198.259018,110.295311 196.179047,110.175369   C188.590851,109.737846 180.962158,110.002434 173.214767,110.002434   C173.214767,125.837479 173.214767,141.238312 173.214767,156.999863   C176.711624,156.999863 180.009140,156.892303 183.296097,157.032394   C186.156906,157.154297 187.097366,155.893906 187.037109,153.153702   C186.913208,147.520096 186.999863,141.881851 186.999863,136.083557   C188.347137,136.083557 190.137436,135.964508 190.157059,136.100632   C191.146255,142.964569 191.984253,149.850311 192.845779,156.791412   C204.715485,157.562668 204.714401,157.562637 205.016785,145.987656   C205.025391,145.657715 205.114792,145.329849 205.944305,145.000351   C207.240662,145.000595 208.537033,145.000839 209.987228,145.804901  M103.200775,15.744991   C105.087776,17.287792 107.058319,18.739910 108.847771,20.388578   C118.192261,28.997860 127.480461,37.668186 136.807449,46.296509   C154.361755,62.535877 172.141785,78.540398 189.359497,95.128822   C194.412430,99.997086 199.725479,102.012619 206.348404,102.010895   C274.823273,101.993088 343.298126,101.998337 411.772980,101.997185   C414.023438,101.997147 416.273926,101.997177 419.246216,101.997177   C417.896637,100.124237 417.189850,98.623207 416.041901,97.634377   C408.368561,91.024559 400.636444,84.481613 392.855591,77.998367   C382.579803,69.436287 372.212646,60.983791 361.945282,52.411732   C357.913971,49.046055 354.386749,44.963860 350.035187,42.117184   C340.027374,35.570374 330.398956,28.723343 322.193268,19.876812   C317.821594,15.163723 312.381592,12.487309 305.250732,12.831996   C292.784424,13.434584 280.261475,13.233887 267.775909,12.882951   C262.890961,12.745647 259.029572,14.405066 256.012299,17.649099   C252.634918,21.280287 248.701935,22.441610 244.118576,21.969028   C235.365448,21.066515 226.610992,20.127714 217.894547,18.931070   C206.969116,17.431166 196.083908,15.639928 185.176605,14.006101   C176.188828,12.659803 167.210175,11.235168 158.197937,10.074643   C149.484924,8.952649 140.734131,8.123763 131.256302,6.802357   C126.518433,6.162838 121.780571,5.523320 116.819359,4.291940   C116.213196,4.250013 115.607025,4.208086 114.152229,4.010404   C110.504059,3.362833 106.846626,2.150335 103.210060,2.209989   C98.613640,2.285387 93.010849,1.956156 89.648315,4.344430   C81.150040,10.380426 73.548500,17.714069 65.798363,24.759567   C55.793892,33.854443 46.094395,43.285316 36.068752,52.356182   C30.147470,57.713558 23.880520,62.692257 17.711512,67.771400   C12.715879,71.884460 6.635748,75.364090 9.593114,84.061783   C13.773582,80.508057 17.869404,77.097160 21.887785,73.597343   C35.098804,62.091198 48.297752,50.571072 61.469769,39.020309   C70.097130,31.454830 78.652679,23.807474 87.278069,16.239725   C89.722870,14.094710 92.179779,10.673279 94.851158,10.448160   C97.402298,10.233173 100.239952,13.418245 103.200775,15.744991  M39.000004,140.495056   C39.000244,144.825439 38.736088,149.182144 39.162891,153.470062   C39.289864,154.745651 41.273403,156.718857 42.549526,156.837997   C47.007618,157.254227 51.546349,156.750275 56.019981,157.073242   C60.077438,157.366196 61.112732,155.840118 61.080822,151.931320   C60.909496,130.946976 61.003407,109.960518 60.988594,88.974800   C60.987934,88.038857 60.820671,87.103035 60.743412,86.296631   C53.331112,86.296631 46.260086,86.296631 39.000004,86.296631   C39.000004,104.226959 39.000004,121.862030 39.000004,140.495056  M328.644104,110.000702   C327.762909,110.954941 326.168671,111.874199 326.119873,112.869263   C325.864288,118.079987 326.000458,123.309929 326.000458,128.533188   C325.672089,128.611115 325.343719,128.689026 325.015350,128.766937   C322.579956,122.487823 320.144562,116.208702 317.807800,110.183914   C313.645203,110.183914 310.027863,110.183914 306.351929,110.183914   C306.351929,125.893372 306.351929,141.416336 306.351929,156.867996   C310.022339,156.867996 313.338501,156.867996 316.970032,156.867996   C317.308807,150.583435 317.641296,144.415329 318.033875,137.132706   C318.946533,138.882324 319.321136,139.426300 319.528717,140.027893   C320.573273,143.054764 321.550598,146.104813 322.594940,149.131744   C325.516022,157.598145 325.524445,157.594604 334.371094,157.002365   C334.702881,156.980148 335.177856,157.135513 335.346771,156.967499   C336.272095,156.047302 337.874969,155.060303 337.885956,154.081039   C338.049316,139.483368 337.998840,124.883293 337.998840,110.000267   C334.874725,110.000267 332.241272,110.000267 328.644104,110.000702  M88.998322,116.562286   C88.998322,120.692497 88.998322,124.822701 88.998322,128.952911   C88.521210,128.994110 88.044090,129.035309 87.566978,129.076508   C85.712669,123.885559 83.971855,118.649269 81.928375,113.533890   C81.382187,112.166618 80.019691,110.311043 78.844246,110.162216   C75.316559,109.715576 71.696136,110.001389 67.999817,110.001389   C67.999817,122.649330 67.894302,134.632401 68.029678,146.612747   C68.163513,158.457367 65.711205,156.913010 78.648865,156.952530   C79.073441,156.953827 79.499062,156.611069 80.490738,156.185654   C80.490738,150.217514 80.490738,144.116104 80.490738,138.014709   C83.267952,143.346695 85.014526,148.776672 87.069298,154.087402   C87.527985,155.272934 88.987381,156.732880 90.127327,156.867157   C93.337959,157.245361 96.622131,156.999237 99.685760,156.999237   C99.685760,140.944763 99.685760,125.542854 99.685760,110.318932   C95.954414,110.318932 92.545288,110.318932 88.998451,110.318932   C88.998451,112.285858 88.998451,113.937691 88.998322,116.562286  M277.659424,157.004822   C289.931152,161.463303 300.000031,154.540100 299.999786,141.644150   C299.999634,134.817154 300.054871,127.989578 299.981750,121.163376   C299.929047,116.245461 296.591705,111.274948 291.926025,110.123589   C288.334198,109.237213 284.502625,109.104393 280.771210,109.045937   C272.306732,108.913353 267.019623,114.193588 267.002960,122.513214   C266.988953,129.506699 266.891083,136.502335 267.027405,143.493195   C267.199829,152.335022 270.266693,155.344849 277.659424,157.004822  M134.963791,147.216919   C136.750122,134.876114 138.536453,122.535301 140.318192,110.226151   C135.517441,110.226151 130.417221,110.226151 125.432777,110.226151   C124.487373,119.191956 123.566864,127.921692 122.518951,137.859650   C121.751381,135.884811 121.150551,134.948212 121.040405,133.957077   C120.301521,127.308418 119.825996,120.625290 118.874420,114.009537   C118.665520,112.557152 116.998070,110.318108 115.805840,110.183678   C111.622467,109.711983 107.353355,110.000648 103.015381,110.000648   C104.425392,116.930595 105.834892,123.218002 106.958214,129.556137   C108.116928,136.093979 109.262917,142.654373 109.927986,149.253922   C110.662605,156.543777 110.867226,157.000214 117.987656,157.000626   C119.819092,157.000732 121.650536,157.000626 123.481972,157.000626   C133.008636,157.000656 133.008636,157.000671 134.963791,147.216919  M383.339966,136.032593   C384.669464,136.961807 385.910431,138.068405 387.346008,138.785172   C390.886719,140.553055 391.400757,143.621155 390.917053,146.983749   C390.763702,148.049667 389.782166,149.655319 388.975342,149.789978   C388.103241,149.935547 386.402588,148.848221 386.099213,147.949127   C385.288971,145.547821 385.034180,142.959091 384.475098,140.003189   C381.421539,140.003189 378.103241,139.792603 374.840912,140.127213   C373.817566,140.232193 372.301788,141.684738 372.109375,142.723770   C371.026367,148.571960 374.120026,154.303741 379.823303,156.180389   C383.441437,157.370895 387.471680,158.074326 391.244934,157.839020   C396.241974,157.527435 401.813568,156.211853 403.767792,151.046524   C406.283936,144.395874 405.361053,134.839676 397.321442,130.788315   C394.316162,129.273880 391.376221,127.607330 388.514282,125.835953   C383.777527,122.904167 383.737213,119.181442 388.164246,116.164131   C389.707886,118.768776 390.686218,122.681351 392.947632,123.675652   C395.923065,124.983887 399.907623,123.997017 403.512146,123.997017   C403.280640,121.472252 402.845795,119.907738 403.056549,118.435661   C403.700134,113.941071 401.059052,110.917931 397.519928,110.422974   C391.348969,109.559975 384.939270,109.603546 378.732056,110.250168   C376.660278,110.465981 373.930756,113.359612 373.173370,115.595337   C370.367065,123.879143 371.296875,130.383865 383.339966,136.032593  M157.999191,144.092377   C157.999191,141.818497 157.999191,139.544601 157.999191,137.933929   C161.029343,135.299774 166.567505,140.181259 167.104996,133.113464   C167.718658,125.043800 161.270096,129.255432 158.242188,127.609520   C158.242188,124.767387 158.242188,122.029701 158.242188,118.916138   C161.219086,118.916138 163.960175,118.916138 166.772736,118.916138   C166.772736,115.794739 166.772736,113.061859 166.772736,110.212082   C158.818497,110.212082 151.092880,110.212082 143.000488,110.212082   C143.000488,124.841690 142.940506,139.262253 143.117905,153.679901   C143.131638,154.794968 144.780243,156.813293 145.724915,156.847092   C153.120300,157.111603 160.529388,156.993607 167.664810,156.993607   C167.664810,153.238998 167.664810,150.163025 167.664810,146.999680   C164.510834,146.999680 161.687210,147.066544 158.875931,146.910843   C158.543015,146.892395 158.277573,145.655548 157.999191,144.092377  M343.999451,114.622375   C343.999451,128.699768 343.999451,142.777161 343.999451,157.000031   C351.451355,157.000031 358.268188,156.887436 365.078491,157.050125   C368.225098,157.125320 368.882751,155.764099 369.099762,152.885483   C369.438568,148.390518 368.159668,146.223984 363.333893,146.958481   C361.626129,147.218399 359.845581,147.000046 358.337708,147.000046   C358.337708,143.230621 358.337708,140.155685 358.337708,136.711685   C361.426025,136.711685 364.172363,136.711685 366.666901,136.711685   C366.666901,133.577087 366.666901,130.834183 366.666901,127.722534   C363.585144,127.722534 360.837677,127.722534 358.327209,127.722534   C358.327209,124.582169 358.327209,121.835915 358.327209,119.116425   C368.416992,118.799728 368.416992,118.799728 367.658844,110.001411   C360.588165,110.001411 353.468903,110.109970 346.355499,109.952568   C343.121887,109.881004 344.186646,112.049103 343.999451,114.622375  M336.254974,171.007462   C335.716125,171.725540 334.709198,172.444107 334.709930,173.161636   C334.718414,181.485458 334.905914,189.808868 334.985352,198.132965   C335.014374,201.171661 333.765381,206.086319 335.058990,206.857285   C337.670410,208.413681 341.622803,207.730957 345.024658,207.927551   C345.271667,207.941833 345.539307,207.598892 346.000977,207.282486   C346.000977,204.770660 346.000946,202.127472 346.000946,199.484268   C346.000946,196.695145 346.000977,193.906036 346.000977,190.966248   C351.941956,191.191254 349.818970,195.399109 349.920624,197.985382   C350.359253,209.143799 347.820496,208.003235 360.006012,207.931686   C360.267395,207.930145 360.526855,207.609375 361.129120,207.211868   C359.607880,201.003357 364.556427,193.124496 356.043427,188.541275   C360.040527,186.676498 361.596588,183.531189 360.909424,179.663834   C360.256104,175.986984 359.116821,172.160324 354.318512,171.851196   C348.593811,171.482361 342.858582,171.276886 336.254974,171.007462  M166.152695,201.034241   C167.035431,203.142227 167.918182,205.250214 168.946991,207.707016   C172.157654,207.707016 176.036850,207.707016 180.149872,207.707016   C177.679916,195.274155 175.275787,183.172592 172.883011,171.128235   C167.070358,171.128235 161.776886,171.128235 156.237732,171.128235   C154.110718,183.345764 151.998596,195.477707 149.855927,207.785217   C154.168991,207.785217 157.926483,207.785217 161.343826,207.785217   C163.529648,205.739182 159.073288,200.478561 166.152695,201.034241  M228.506683,203.998566   C228.322647,205.208099 228.138611,206.417648 227.930405,207.786041   C232.153183,207.786041 235.913498,207.786041 240.032776,207.786041   C240.032776,205.495422 240.032776,203.400238 240.032776,201.424301   C246.657196,199.395142 246.088806,203.925949 246.019852,207.802185   C249.804626,207.802185 253.230942,207.802185 257.590576,207.802185   C255.334457,195.322906 253.141907,183.195404 250.960617,171.130096   C245.057556,171.130096 239.756912,171.130096 233.861008,171.130096   C232.224930,181.848236 230.593872,192.533463 228.506683,203.998566  M217.639130,181.000687   C220.065231,181.000687 222.491348,181.000687 225.726654,181.000687   C224.799240,178.137619 224.719925,175.426331 223.324280,174.045044   C219.079269,169.843719 213.636429,169.400024 207.947266,170.494614   C203.598480,171.331329 199.719284,172.663635 199.016144,177.814621   C198.187592,183.884308 199.732483,186.574539 205.799652,189.983276   C207.752014,191.080200 210.132767,191.783661 211.555267,193.356522   C213.152496,195.122543 214.158478,197.589783 214.838364,199.921982   C215.054672,200.663971 213.405273,201.949829 212.609634,202.986816   C211.740814,202.028427 210.439468,201.197540 210.110092,200.080139   C209.675430,198.605515 210.003189,196.906158 210.003189,194.999588   C206.931595,194.999588 204.296967,194.986877 201.662598,195.007187   C200.858032,195.013382 200.054184,195.110336 199.280121,195.163651   C198.797287,202.596741 200.672379,206.711060 206.454422,207.621719   C211.174057,208.365021 216.392761,207.973953 220.977066,206.652557   C223.149521,206.026367 225.377426,202.214722 225.799973,199.562607   C226.844467,193.006943 223.205307,188.621017 217.307739,186.034851   C213.759491,184.478882 209.969757,183.220032 208.932816,178.147430   C210.315216,177.384811 211.845978,176.540344 212.112457,176.393341   C214.163589,178.446075 215.439758,179.723221 217.639130,181.000687  M246.999847,119.533600   C246.999847,131.913437 246.999847,144.293274 246.999847,156.785767   C251.843475,156.785767 256.239624,156.785767 260.673584,156.785767   C260.673584,141.089844 260.673584,125.610329 260.673584,110.312149   C255.948090,110.312149 251.553452,110.312149 246.999847,110.312149   C246.999847,113.262047 246.999847,115.903030 246.999847,119.533600  M270.986572,201.854172   C270.986572,203.814514 270.986572,205.774872 270.986572,207.998489   C277.197052,207.998489 283.020569,208.172684 288.815979,207.847000   C289.933838,207.784180 291.935852,205.578491 291.770203,204.689194   C291.513550,203.311630 289.849609,202.081009 288.562408,201.067413   C288.047943,200.662323 286.939056,200.915756 286.117889,201.013443   C282.680817,201.422333 281.878265,199.676178 281.928772,196.574799   C281.976196,193.660522 282.349121,191.583054 285.965881,191.978439   C287.219940,192.115509 288.501587,192.000259 289.747437,192.000259   C289.747437,189.721146 289.747437,187.976562 289.747437,186.255264   C281.316315,185.685684 281.316315,185.685684 282.530670,178.238190   C291.480438,177.639221 291.480438,177.639221 290.470215,171.275482   C284.053711,171.275482 277.645508,171.275482 270.998779,171.275482   C270.998779,181.352020 270.998779,191.154968 270.986572,201.854172  M387.091187,171.031387   C383.826935,171.031387 380.562683,171.031387 377.359283,171.031387   C377.359283,183.630096 377.359283,195.783051 377.359283,207.681778   C383.793732,207.681778 389.865387,207.681778 395.684692,207.681778   C395.684692,205.274109 395.684692,203.200119 395.684692,201.160492   C393.300110,201.017014 391.232391,200.892609 389.000946,200.758347   C389.000946,192.438690 389.062164,184.491516 388.952423,176.546692   C388.928772,174.835373 388.288422,173.132553 387.091187,171.031387  M317.947723,207.235596   C317.947723,195.287582 317.947723,183.339569 317.947723,171.000916   C315.499390,171.000916 313.353668,171.216705 311.267639,170.955597   C307.044556,170.427017 305.716858,172.095276 305.913971,176.286453   C306.234344,183.099716 305.983124,189.939072 306.004028,196.767334   C306.038879,208.157898 306.049164,208.157867 317.947723,207.235596  M194.002106,191.498322   C194.002106,184.731384 194.002106,177.964447 194.002106,171.287399   C190.019684,171.287399 186.613098,171.287399 183.280975,171.287399   C183.280975,183.648514 183.280975,195.720230 183.280975,207.711884   C186.982620,207.711884 190.389038,207.711884 194.002853,207.711884   C194.002853,202.449310 194.002853,197.473068 194.002106,191.498322  M294.003632,206.362625   C296.553925,207.084091 299.104187,207.805557 301.683105,208.535126   C301.683105,205.229141 301.683105,203.177368 301.683105,201.277313   C298.967010,201.277313 296.581238,201.277313 293.999115,201.277313   C293.999115,202.845810 293.999115,204.138321 294.003632,206.362625  M321.999329,205.434082   C323.306244,210.539963 327.131165,206.736542 329.659424,208.123306   C329.659424,205.413620 329.659424,203.250183 329.659424,200.410904   C327.054199,202.609543 321.761322,197.603409 321.999329,205.434082  M364.999207,203.573166   C365.072968,204.985596 365.146698,206.398041 365.217865,207.760773   C367.954437,207.760773 370.340240,207.760773 372.798584,207.760773   C372.798584,205.465256 372.798584,203.415131 372.798584,200.212418   C369.924072,201.106552 367.463684,201.871887 364.999207,203.573166  M399.998840,204.497833   C400.061096,211.782486 405.218262,206.279175 407.817261,208.290649   C407.817261,205.503403 407.817261,203.451782 407.817261,200.721100   C405.189545,202.476562 401.213348,198.153412 399.998840,204.497833  z"/>
<path fill="#1a1a1a" opacity="1.000000" stroke="none" d=" M115.000862,4.166159   C115.607025,4.208086 116.213196,4.250013 116.986801,4.969791   C121.779121,6.694308 126.399406,7.763342 131.044098,8.713084   C131.248718,8.754925 131.676239,7.706634 131.999939,7.166130   C140.734131,8.123763 149.484924,8.952649 158.197937,10.074643   C167.210175,11.235168 176.188828,12.659803 185.176605,14.006101   C196.083908,15.639928 206.969116,17.431166 217.894547,18.931070   C226.610992,20.127714 235.365448,21.066515 244.118576,21.969028   C248.701935,22.441610 252.634918,21.280287 256.012299,17.649099   C259.029572,14.405066 262.890961,12.745647 267.775909,12.882951   C280.261475,13.233887 292.784424,13.434584 305.250732,12.831996   C312.381592,12.487309 317.821594,15.163723 322.193268,19.876812   C330.398956,28.723343 340.027374,35.570374 350.035187,42.117184   C354.386749,44.963860 357.913971,49.046055 361.945282,52.411732   C372.212646,60.983791 382.579803,69.436287 392.855591,77.998367   C400.636444,84.481613 408.368561,91.024559 416.041901,97.634377   C417.189850,98.623207 417.896637,100.124237 419.246216,101.997177   C416.273926,101.997177 414.023438,101.997147 411.772980,101.997185   C343.298126,101.998337 274.823273,101.993088 206.348404,102.010895   C199.725479,102.012619 194.412430,99.997086 189.359497,95.128822   C172.141785,78.540398 154.361755,62.535877 136.807449,46.296509   C127.480461,37.668186 118.192261,28.997860 108.847771,20.388578   C107.058319,18.739910 105.087776,17.287792 103.217743,15.087128   C101.932037,8.112126 105.409630,7.508775 110.478142,7.783218   C111.916214,7.861086 113.489555,5.440786 115.000862,4.166159  M245.452316,72.969467   C249.691620,76.873932 253.570084,81.308632 258.283661,84.516129   C262.097229,87.111214 266.880127,89.648148 271.295380,89.760490   C292.415833,90.297882 313.557770,89.949699 334.691376,90.053947   C337.910614,90.069832 339.106842,89.073013 339.057709,85.768227   C338.901764,75.286690 339.101349,64.799416 338.899231,54.319443   C338.866241,52.607811 337.888062,50.542511 336.676941,49.286621   C329.495300,41.839607 321.856476,34.817776 314.925995,27.151627   C311.977936,23.890633 309.264862,23.005472 305.817169,25.067928   C295.888733,31.007227 286.068207,37.128738 276.259033,43.264637   C271.007477,46.549618 265.752228,49.227551 259.191986,49.087395   C245.634430,48.797733 232.066391,49.000114 217.024841,49.000114   C225.850342,58.749561 235.666382,65.296577 245.452316,72.969467  z"/>
<path fill="#1a1a1a" opacity="1.000000" stroke="none" d=" M39.000004,139.996078   C39.000004,121.862030 39.000004,104.226959 39.000004,86.296631   C46.260086,86.296631 53.331112,86.296631 60.743412,86.296631   C60.820671,87.103035 60.987934,88.038857 60.988594,88.974800   C61.003407,109.960518 60.909496,130.946976 61.080822,151.931320   C61.112732,155.840118 60.077438,157.366196 56.019981,157.073242   C51.546349,156.750275 47.007618,157.254227 42.549526,156.837997   C41.273403,156.718857 39.289864,154.745651 39.162891,153.470062   C38.736088,149.182144 39.000244,144.825439 39.000004,139.996078  z"/>
<path fill="#1a1a1a" opacity="1.000000" stroke="none" d=" M329.125977,110.000488   C332.241272,110.000267 334.874725,110.000267 337.998840,110.000267   C337.998840,124.883293 338.049316,139.483368 337.885956,154.081039   C337.874969,155.060303 336.272095,156.047302 335.346771,156.967499   C335.177856,157.135513 334.702881,156.980148 334.371094,157.002365   C325.524445,157.594604 325.516022,157.598145 322.594940,149.131744   C321.550598,146.104813 320.573273,143.054764 319.528717,140.027893   C319.321136,139.426300 318.946533,138.882324 318.033875,137.132706   C317.641296,144.415329 317.308807,150.583435 316.970032,156.867996   C313.338501,156.867996 310.022339,156.867996 306.351929,156.867996   C306.351929,141.416336 306.351929,125.893372 306.351929,110.183914   C310.027863,110.183914 313.645203,110.183914 317.807800,110.183914   C320.144562,116.208702 322.579956,122.487823 325.015350,128.766937   C325.343719,128.689026 325.672089,128.611115 326.000458,128.533188   C326.000458,123.309929 325.864288,118.079987 326.119873,112.869263   C326.168671,111.874199 327.762909,110.954941 329.125977,110.000488  z"/>
<path fill="#1a1a1a" opacity="1.000000" stroke="none" d=" M88.998383,116.075905   C88.998451,113.937691 88.998451,112.285858 88.998451,110.318932   C92.545288,110.318932 95.954414,110.318932 99.685760,110.318932   C99.685760,125.542854 99.685760,140.944763 99.685760,156.999237   C96.622131,156.999237 93.337959,157.245361 90.127327,156.867157   C88.987381,156.732880 87.527985,155.272934 87.069298,154.087402   C85.014526,148.776672 83.267952,143.346695 80.490738,138.014709   C80.490738,144.116104 80.490738,150.217514 80.490738,156.185654   C79.499062,156.611069 79.073441,156.953827 78.648865,156.952530   C65.711205,156.913010 68.163513,158.457367 68.029678,146.612747   C67.894302,134.632401 67.999817,122.649330 67.999817,110.001389   C71.696136,110.001389 75.316559,109.715576 78.844246,110.162216   C80.019691,110.311043 81.382187,112.166618 81.928375,113.533890   C83.971855,118.649269 85.712669,123.885559 87.566978,129.076508   C88.044090,129.035309 88.521210,128.994110 88.998322,128.952911   C88.998322,124.822701 88.998322,120.692497 88.998383,116.075905  z"/>
<path fill="#1a1a1a" opacity="1.000000" stroke="none" d=" M277.236084,157.002075   C270.266693,155.344849 267.199829,152.335022 267.027405,143.493195   C266.891083,136.502335 266.988953,129.506699 267.002960,122.513214   C267.019623,114.193588 272.306732,108.913353 280.771210,109.045937   C284.502625,109.104393 288.334198,109.237213 291.926025,110.123589   C296.591705,111.274948 299.929047,116.245461 299.981750,121.163376   C300.054871,127.989578 299.999634,134.817154 299.999786,141.644150   C300.000031,154.540100 289.931152,161.463303 277.236084,157.002075  M281.000732,121.918930   C281.000702,129.565613 280.860016,137.216843 281.107819,144.855469   C281.164032,146.588196 282.568115,148.277191 283.351776,149.986313   C284.234375,148.331238 285.822510,146.699982 285.879395,145.017014   C286.148712,137.046967 286.102356,129.060440 285.919800,121.085495   C285.879883,119.341103 284.823059,117.619987 284.234558,115.888153   C283.761871,115.887093 283.289185,115.886032 282.816498,115.884972   C282.211395,117.597923 281.606262,119.310883 281.000732,121.918930  z"/>
<path fill="#1a1a1a" opacity="1.000000" stroke="none" d=" M205.166504,145.001022   C205.114792,145.329849 205.025391,145.657715 205.016785,145.987656   C204.714401,157.562637 204.715485,157.562668 192.845779,156.791412   C191.984253,149.850311 191.146255,142.964569 190.157059,136.100632   C190.137436,135.964508 188.347137,136.083557 186.999863,136.083557   C186.999863,141.881851 186.913208,147.520096 187.037109,153.153702   C187.097366,155.893906 186.156906,157.154297 183.296097,157.032394   C180.009140,156.892303 176.711624,156.999863 173.214767,156.999863   C173.214767,141.238312 173.214767,125.837479 173.214767,110.002434   C180.962158,110.002434 188.590851,109.737846 196.179047,110.175369   C198.259018,110.295311 200.217712,112.518692 202.728210,114.275162   C205.711273,121.576401 206.856277,128.083527 199.096100,132.464355   C204.252182,135.342636 205.210785,139.932495 205.166504,145.001022  M188.199249,127.986572   C191.973831,127.148766 192.381439,124.137886 191.836578,121.269981   C191.539810,119.707901 189.712463,118.436600 188.575424,117.034149   C188.166183,117.298241 187.756958,117.562332 187.347733,117.826431   C187.347733,121.160477 187.347733,124.494522 188.199249,127.986572  z"/>
<path fill="#1a1a1a" opacity="1.000000" stroke="none" d=" M134.735901,147.606064   C133.008636,157.000671 133.008636,157.000656 123.481972,157.000626   C121.650536,157.000626 119.819092,157.000732 117.987656,157.000626   C110.867226,157.000214 110.662605,156.543777 109.927986,149.253922   C109.262917,142.654373 108.116928,136.093979 106.958214,129.556137   C105.834892,123.218002 104.425392,116.930595 103.015381,110.000648   C107.353355,110.000648 111.622467,109.711983 115.805840,110.183678   C116.998070,110.318108 118.665520,112.557152 118.874420,114.009537   C119.825996,120.625290 120.301521,127.308418 121.040405,133.957077   C121.150551,134.948212 121.751381,135.884811 122.518951,137.859650   C123.566864,127.921692 124.487373,119.191956 125.432777,110.226151   C130.417221,110.226151 135.517441,110.226151 140.318192,110.226151   C138.536453,122.535301 136.750122,134.876114 134.735901,147.606064  z"/>
<path fill="#1a1a1a" opacity="1.000000" stroke="none" d=" M224.001007,108.833366   C227.941467,109.543587 231.913651,110.120560 235.802780,111.046394   C236.947845,111.318993 238.440826,112.394844 238.765198,113.421440   C239.702332,116.387276 240.379150,119.509293 240.454514,122.587212   C240.464859,123.008965 236.496979,123.694290 234.334503,123.953743   C232.389328,124.187119 230.394073,124.002937 228.110214,124.002937   C228.064026,123.126511 228.175537,122.467300 227.974091,121.924171   C227.281998,120.058128 226.480331,118.232727 225.720413,116.391830   C224.835648,116.884651 223.146179,117.488747 223.196442,117.852264   C223.528000,120.249901 223.481125,123.430130 224.978149,124.780830   C227.888916,127.407082 231.816116,128.871094 235.174438,131.044891   C241.028290,134.834030 243.483322,141.796082 241.954010,149.140793   C240.530914,155.975311 234.738968,157.081940 229.535522,157.799561   C223.802261,158.590240 217.516357,158.552338 213.252441,153.536194   C211.524170,151.503021 211.038391,148.413666 209.987976,144.959442   C209.988708,142.842834 209.988708,141.571716 209.988708,140.217133   C214.497742,140.217133 218.588715,140.217133 223.000488,140.217133   C223.000488,142.550659 222.805054,144.704391 223.079788,146.796387   C223.225494,147.905975 224.187424,148.908386 224.780884,149.959167   C225.862320,149.212631 227.315689,148.699570 227.957565,147.677094   C230.142548,144.196411 228.403030,141.346649 225.636978,139.323380   C222.538696,137.057129 219.103729,135.239029 215.757797,133.326477   C211.287094,130.770996 208.311081,125.092865 209.008011,120.324013   C209.846481,114.586777 212.503464,110.387535 218.558655,109.206573   C220.329666,108.861153 222.184555,108.945831 224.001007,108.833366  z"/>
<path fill="#1a1a1a" opacity="1.000000" stroke="none" d=" M382.963318,135.998077   C371.296875,130.383865 370.367065,123.879143 373.173370,115.595337   C373.930756,113.359612 376.660278,110.465981 378.732056,110.250168   C384.939270,109.603546 391.348969,109.559975 397.519928,110.422974   C401.059052,110.917931 403.700134,113.941071 403.056549,118.435661   C402.845795,119.907738 403.280640,121.472252 403.512146,123.997017   C399.907623,123.997017 395.923065,124.983887 392.947632,123.675652   C390.686218,122.681351 389.707886,118.768776 388.164246,116.164131   C383.737213,119.181442 383.777527,122.904167 388.514282,125.835953   C391.376221,127.607330 394.316162,129.273880 397.321442,130.788315   C405.361053,134.839676 406.283936,144.395874 403.767792,151.046524   C401.813568,156.211853 396.241974,157.527435 391.244934,157.839020   C387.471680,158.074326 383.441437,157.370895 379.823303,156.180389   C374.120026,154.303741 371.026367,148.571960 372.109375,142.723770   C372.301788,141.684738 373.817566,140.232193 374.840912,140.127213   C378.103241,139.792603 381.421539,140.003189 384.475098,140.003189   C385.034180,142.959091 385.288971,145.547821 386.099213,147.949127   C386.402588,148.848221 388.103241,149.935547 388.975342,149.789978   C389.782166,149.655319 390.763702,148.049667 390.917053,146.983749   C391.400757,143.621155 390.886719,140.553055 387.346008,138.785172   C385.910431,138.068405 384.669464,136.961807 382.963318,135.998077  z"/>
<path fill="#1a1a1a" opacity="1.000000" stroke="none" d=" M114.576546,4.088281   C113.489555,5.440786 111.916214,7.861086 110.478142,7.783218   C105.409630,7.508775 101.932037,8.112126 103.093185,14.768999   C100.239952,13.418245 97.402298,10.233173 94.851158,10.448160   C92.179779,10.673279 89.722870,14.094710 87.278069,16.239725   C78.652679,23.807474 70.097130,31.454830 61.469769,39.020309   C48.297752,50.571072 35.098804,62.091198 21.887785,73.597343   C17.869404,77.097160 13.773582,80.508057 9.593114,84.061783   C6.635748,75.364090 12.715879,71.884460 17.711512,67.771400   C23.880520,62.692257 30.147470,57.713558 36.068752,52.356182   C46.094395,43.285316 55.793892,33.854443 65.798363,24.759567   C73.548500,17.714069 81.150040,10.380426 89.648315,4.344430   C93.010849,1.956156 98.613640,2.285387 103.210060,2.209989   C106.846626,2.150335 110.504059,3.362833 114.576546,4.088281  z"/>
<path fill="#1a1a1a" opacity="1.000000" stroke="none" d=" M157.990021,144.537933   C158.277573,145.655548 158.543015,146.892395 158.875931,146.910843   C161.687210,147.066544 164.510834,146.999680 167.664810,146.999680   C167.664810,150.163025 167.664810,153.238998 167.664810,156.993607   C160.529388,156.993607 153.120300,157.111603 145.724915,156.847092   C144.780243,156.813293 143.131638,154.794968 143.117905,153.679901   C142.940506,139.262253 143.000488,124.841690 143.000488,110.212082   C151.092880,110.212082 158.818497,110.212082 166.772736,110.212082   C166.772736,113.061859 166.772736,115.794739 166.772736,118.916138   C163.960175,118.916138 161.219086,118.916138 158.242188,118.916138   C158.242188,122.029701 158.242188,124.767387 158.242188,127.609520   C161.270096,129.255432 167.718658,125.043800 167.104996,133.113464   C166.567505,140.181259 161.029343,135.299774 157.999191,137.933929   C157.999191,139.544601 157.999191,141.818497 157.990021,144.537933  z"/>
<path fill="#1a1a1a" opacity="1.000000" stroke="none" d=" M343.999329,114.136887   C344.186646,112.049103 343.121887,109.881004 346.355499,109.952568   C353.468903,110.109970 360.588165,110.001411 367.658844,110.001411   C368.416992,118.799728 368.416992,118.799728 358.327209,119.116425   C358.327209,121.835915 358.327209,124.582169 358.327209,127.722534   C360.837677,127.722534 363.585144,127.722534 366.666901,127.722534   C366.666901,130.834183 366.666901,133.577087 366.666901,136.711685   C364.172363,136.711685 361.426025,136.711685 358.337708,136.711685   C358.337708,140.155685 358.337708,143.230621 358.337708,147.000046   C359.845581,147.000046 361.626129,147.218399 363.333893,146.958481   C368.159668,146.223984 369.438568,148.390518 369.099762,152.885483   C368.882751,155.764099 368.225098,157.125320 365.078491,157.050125   C358.268188,156.887436 351.451355,157.000031 343.999451,157.000031   C343.999451,142.777161 343.999451,128.699768 343.999329,114.136887  z"/>
<path fill="#1a1a1a" opacity="1.000000" stroke="none" d=" M336.691467,171.004059   C342.858582,171.276886 348.593811,171.482361 354.318512,171.851196   C359.116821,172.160324 360.256104,175.986984 360.909424,179.663834   C361.596588,183.531189 360.040527,186.676498 356.043427,188.541275   C364.556427,193.124496 359.607880,201.003357 361.129120,207.211868   C360.526855,207.609375 360.267395,207.930145 360.006012,207.931686   C347.820496,208.003235 350.359253,209.143799 349.920624,197.985382   C349.818970,195.399109 351.941956,191.191254 346.000977,190.966248   C346.000977,193.906036 346.000946,196.695145 346.000946,199.484268   C346.000946,202.127472 346.000977,204.770660 346.000977,207.282486   C345.539307,207.598892 345.271667,207.941833 345.024658,207.927551   C341.622803,207.730957 337.670410,208.413681 335.058990,206.857285   C333.765381,206.086319 335.014374,201.171661 334.985352,198.132965   C334.905914,189.808868 334.718414,181.485458 334.709930,173.161636   C334.709198,172.444107 335.716125,171.725540 336.691467,171.004059  M345.998413,183.243790   C346.099243,184.133453 346.200104,185.023117 346.300934,185.912781   C346.884125,186.053009 347.467316,186.193237 348.050507,186.333450   C348.700195,184.347595 349.793060,182.372391 349.841125,180.372070   C349.872284,179.075653 348.377319,177.742599 347.566162,176.425949   C347.044312,176.650726 346.522491,176.875504 346.000641,177.100281   C346.000641,178.851532 346.000641,180.602783 345.998413,183.243790  z"/>
<path fill="#1a1a1a" opacity="1.000000" stroke="none" d=" M165.702179,201.018234   C159.073288,200.478561 163.529648,205.739182 161.343826,207.785217   C157.926483,207.785217 154.168991,207.785217 149.855927,207.785217   C151.998596,195.477707 154.110718,183.345764 156.237732,171.128235   C161.776886,171.128235 167.070358,171.128235 172.883011,171.128235   C175.275787,183.172592 177.679916,195.274155 180.149872,207.707016   C176.036850,207.707016 172.157654,207.707016 168.946991,207.707016   C167.918182,205.250214 167.035431,203.142227 165.702179,201.018234  M164.001953,182.623917   C163.492508,186.517822 162.983078,190.411713 162.425278,194.675323   C164.203003,194.675323 165.523300,194.675323 167.167343,194.675323   C166.749283,190.281113 166.392532,186.221771 165.897934,182.179260   C165.871124,181.960144 164.690567,181.882156 164.001953,182.623917  z"/>
<path fill="#1a1a1a" opacity="1.000000" stroke="none" d=" M228.734756,203.608612   C230.593872,192.533463 232.224930,181.848236 233.861008,171.130096   C239.756912,171.130096 245.057556,171.130096 250.960617,171.130096   C253.141907,183.195404 255.334457,195.322906 257.590576,207.802185   C253.230942,207.802185 249.804626,207.802185 246.019852,207.802185   C246.088806,203.925949 246.657196,199.395142 240.032776,201.424301   C240.032776,203.400238 240.032776,205.495422 240.032776,207.786041   C235.913498,207.786041 232.153183,207.786041 227.930405,207.786041   C228.138611,206.417648 228.322647,205.208099 228.734756,203.608612  M241.000809,188.365265   C239.637512,195.089554 239.673157,195.146088 245.162292,194.375488   C244.486099,189.663269 243.813477,184.975998 243.140854,180.288712   C242.836929,180.316635 242.533005,180.344543 242.229065,180.372467   C241.819641,182.746964 241.410217,185.121460 241.000809,188.365265  z"/>
<path fill="#1a1a1a" opacity="1.000000" stroke="none" d=" M217.177521,181.000519   C215.439758,179.723221 214.163589,178.446075 212.112457,176.393341   C211.845978,176.540344 210.315216,177.384811 208.932816,178.147430   C209.969757,183.220032 213.759491,184.478882 217.307739,186.034851   C223.205307,188.621017 226.844467,193.006943 225.799973,199.562607   C225.377426,202.214722 223.149521,206.026367 220.977066,206.652557   C216.392761,207.973953 211.174057,208.365021 206.454422,207.621719   C200.672379,206.711060 198.797287,202.596741 199.280121,195.163651   C200.054184,195.110336 200.858032,195.013382 201.662598,195.007187   C204.296967,194.986877 206.931595,194.999588 210.003189,194.999588   C210.003189,196.906158 209.675430,198.605515 210.110092,200.080139   C210.439468,201.197540 211.740814,202.028427 212.609619,202.986816   C213.405273,201.949829 215.054672,200.663971 214.838364,199.921982   C214.158478,197.589783 213.152496,195.122543 211.555267,193.356522   C210.132767,191.783661 207.752014,191.080200 205.799652,189.983276   C199.732483,186.574539 198.187592,183.884308 199.016144,177.814621   C199.719284,172.663635 203.598480,171.331329 207.947266,170.494614   C213.636429,169.400024 219.079269,169.843719 223.324280,174.045044   C224.719925,175.426331 224.799240,178.137619 225.726654,181.000687   C222.491348,181.000687 220.065231,181.000687 217.177521,181.000519  z"/>
<path fill="#1a1a1a" opacity="1.000000" stroke="none" d=" M246.999847,119.038803   C246.999847,115.903030 246.999847,113.262047 246.999847,110.312149   C251.553452,110.312149 255.948090,110.312149 260.673584,110.312149   C260.673584,125.610329 260.673584,141.089844 260.673584,156.785767   C256.239624,156.785767 251.843475,156.785767 246.999847,156.785767   C246.999847,144.293274 246.999847,131.913437 246.999847,119.038803  z"/>
<path fill="#1a1a1a" opacity="1.000000" stroke="none" d=" M270.992676,201.406036   C270.998779,191.154968 270.998779,181.352020 270.998779,171.275482   C277.645508,171.275482 284.053711,171.275482 290.470215,171.275482   C291.480438,177.639221 291.480438,177.639221 282.530670,178.238190   C281.316315,185.685684 281.316315,185.685684 289.747437,186.255264   C289.747437,187.976562 289.747437,189.721146 289.747437,192.000259   C288.501587,192.000259 287.219940,192.115509 285.965881,191.978439   C282.349121,191.583054 281.976196,193.660522 281.928772,196.574799   C281.878265,199.676178 282.680817,201.422333 286.117889,201.013443   C286.939056,200.915756 288.047943,200.662323 288.562408,201.067413   C289.849609,202.081009 291.513550,203.311630 291.770203,204.689194   C291.935852,205.578491 289.933838,207.784180 288.815979,207.847000   C283.020569,208.172684 277.197052,207.998489 270.986572,207.998489   C270.986572,205.774872 270.986572,203.814514 270.992676,201.406036  z"/>
<path fill="#1a1a1a" opacity="1.000000" stroke="none" d=" M387.511658,171.228607   C388.288422,173.132553 388.928772,174.835373 388.952423,176.546692   C389.062164,184.491516 389.000946,192.438690 389.000946,200.758347   C391.232391,200.892609 393.300110,201.017014 395.684692,201.160492   C395.684692,203.200119 395.684692,205.274109 395.684692,207.681778   C389.865387,207.681778 383.793732,207.681778 377.359283,207.681778   C377.359283,195.783051 377.359283,183.630096 377.359283,171.031387   C380.562683,171.031387 383.826935,171.031387 387.511658,171.228607  z"/>
<path fill="#1a1a1a" opacity="1.000000" stroke="none" d=" M317.624634,207.585754   C306.049164,208.157867 306.038879,208.157898 306.004028,196.767334   C305.983124,189.939072 306.234344,183.099716 305.913971,176.286453   C305.716858,172.095276 307.044556,170.427017 311.267639,170.955597   C313.353668,171.216705 315.499390,171.000916 317.947723,171.000916   C317.947723,183.339569 317.947723,195.287582 317.624634,207.585754  z"/>
<path fill="#1a1a1a" opacity="1.000000" stroke="none" d=" M194.002472,191.997574   C194.002853,197.473068 194.002853,202.449310 194.002853,207.711884   C190.389038,207.711884 186.982620,207.711884 183.280975,207.711884   C183.280975,195.720230 183.280975,183.648514 183.280975,171.287399   C186.613098,171.287399 190.019684,171.287399 194.002106,171.287399   C194.002106,177.964447 194.002106,184.731384 194.002472,191.997574  z"/>
<path fill="#FEFEFE" opacity="1.000000" stroke="none" d=" M223.990906,108.471466   C222.184555,108.945831 220.329666,108.861153 218.558655,109.206573   C212.503464,110.387535 209.846481,114.586777 209.008011,120.324013   C208.311081,125.092865 211.287094,130.770996 215.757797,133.326477   C219.103729,135.239029 222.538696,137.057129 225.636978,139.323380   C228.403030,141.346649 230.142548,144.196411 227.957565,147.677094   C227.315689,148.699570 225.862320,149.212631 224.780884,149.959167   C224.187424,148.908386 223.225494,147.905975 223.079788,146.796387   C222.805054,144.704391 223.000488,142.550659 223.000488,140.217133   C218.588715,140.217133 214.497742,140.217133 209.988708,140.217133   C209.988708,141.571716 209.988708,142.842834 209.911041,144.557526   C208.537033,145.000839 207.240662,145.000595 205.555405,145.000687   C205.210785,139.932495 204.252182,135.342636 199.096100,132.464355   C206.856277,128.083527 205.711273,121.576401 203.056610,114.409637   C204.614746,113.549721 206.340622,113.053650 207.002274,112.863472   C209.205261,110.140579 211.012421,106.261490 212.511810,106.377014   C216.285706,106.667778 220.999146,102.857079 223.990906,108.471466  z"/>
<path fill="#1a1a1a" opacity="1.000000" stroke="none" d=" M294.001373,205.896729   C293.999115,204.138321 293.999115,202.845810 293.999115,201.277313   C296.581238,201.277313 298.967010,201.277313 301.683105,201.277313   C301.683105,203.177368 301.683105,205.229141 301.683105,208.535126   C299.104187,207.805557 296.553925,207.084091 294.001373,205.896729  z"/>
<path fill="#1a1a1a" opacity="1.000000" stroke="none" d=" M321.999298,204.966248   C321.761322,197.603409 327.054199,202.609543 329.659424,200.410904   C329.659424,203.250183 329.659424,205.413620 329.659424,208.123306   C327.131165,206.736542 323.306244,210.539963 321.999298,204.966248  z"/>
<path fill="#1a1a1a" opacity="1.000000" stroke="none" d=" M365.001282,203.105194   C367.463684,201.871887 369.924072,201.106552 372.798584,200.212418   C372.798584,203.415131 372.798584,205.465256 372.798584,207.760773   C370.340240,207.760773 367.954437,207.760773 365.217865,207.760773   C365.146698,206.398041 365.072968,204.985596 365.001282,203.105194  z"/>
<path fill="#1a1a1a" opacity="1.000000" stroke="none" d=" M399.998749,204.032288   C401.213348,198.153412 405.189545,202.476562 407.817261,200.721100   C407.817261,203.451782 407.817261,205.503403 407.817261,208.290649   C405.218262,206.279175 400.061096,211.782486 399.998749,204.032288  z"/>
<path fill="#1a1a1a" opacity="1.000000" stroke="none" d=" M131.628113,6.984243   C131.676239,7.706634 131.248718,8.754925 131.044098,8.713084   C126.399406,7.763342 121.779121,6.694308 117.098480,5.265722   C121.780571,5.523320 126.518433,6.162838 131.628113,6.984243  z"/>
<path fill="#ffffff" opacity="1.000000" stroke="none" d=" M245.207199,72.704865   C235.666382,65.296577 225.850342,58.749561 217.024841,49.000114   C232.066391,49.000114 245.634430,48.797733 259.191986,49.087395   C265.752228,49.227551 271.007477,46.549618 276.259033,43.264637   C286.068207,37.128738 295.888733,31.007227 305.817169,25.067928   C309.264862,23.005472 311.977936,23.890633 314.925995,27.151627   C321.856476,34.817776 329.495300,41.839607 336.676941,49.286621   C337.888062,50.542511 338.866241,52.607811 338.899231,54.319443   C339.101349,64.799416 338.901764,75.286690 339.057709,85.768227   C339.106842,89.073013 337.910614,90.069832 334.691376,90.053947   C313.557770,89.949699 292.415833,90.297882 271.295380,89.760490   C266.880127,89.648148 262.097229,87.111214 258.283661,84.516129   C253.570084,81.308632 249.691620,76.873932 245.207199,72.704865  z"/>
<path fill="#ffffff" opacity="1.000000" stroke="none" d=" M281.000916,121.471390   C281.606262,119.310883 282.211395,117.597923 282.816498,115.884972   C283.289185,115.886032 283.761871,115.887093 284.234558,115.888153   C284.823059,117.619987 285.879883,119.341103 285.919800,121.085495   C286.102356,129.060440 286.148712,137.046967 285.879395,145.017014   C285.822510,146.699982 284.234375,148.331238 283.351807,149.986298   C282.568115,148.277191 281.164032,146.588196 281.107819,144.855469   C280.860016,137.216843 281.000702,129.565613 281.000916,121.471390  z"/>
<path fill="#FEFEFE" opacity="1.000000" stroke="none" d=" M187.773499,127.907570   C187.347733,124.494522 187.347733,121.160477 187.347733,117.826431   C187.756958,117.562332 188.166183,117.298241 188.575424,117.034149   C189.712463,118.436600 191.539810,119.707901 191.836578,121.269981   C192.381439,124.137886 191.973831,127.148766 187.773499,127.907570  z"/>
<path fill="#FEFEFE" opacity="1.000000" stroke="none" d=" M345.999512,182.798920   C346.000641,180.602783 346.000641,178.851532 346.000641,177.100281   C346.522491,176.875504 347.044312,176.650726 347.566162,176.425949   C348.377319,177.742599 349.872284,179.075653 349.841125,180.372070   C349.793060,182.372391 348.700195,184.347595 348.050507,186.333450   C347.467316,186.193237 346.884125,186.053009 346.300934,185.912781   C346.200104,185.023117 346.099243,184.133453 345.999512,182.798920  z"/>
<path fill="#FEFEFE" opacity="1.000000" stroke="none" d=" M164.024506,182.181183   C164.690567,181.882156 165.871124,181.960144 165.897934,182.179260   C166.392532,186.221771 166.749283,190.281113 167.167343,194.675323   C165.523300,194.675323 164.203003,194.675323 162.425278,194.675323   C162.983078,190.411713 163.492508,186.517822 164.024506,182.181183  z"/>
<path fill="#FEFEFE" opacity="1.000000" stroke="none" d=" M241.000793,187.930603   C241.410217,185.121460 241.819641,182.746964 242.229065,180.372467   C242.533005,180.344543 242.836929,180.316635 243.140854,180.288712   C243.813477,184.975998 244.486099,189.663269 245.162292,194.375488   C239.673157,195.146088 239.637512,195.089554 241.000793,187.930603  z"/>
</svg>